<svg xmlns="http://www.w3.org/2000/svg" viewBox="0 0 400 401"><defs><style>.cls-1{opacity:0.33;}.cls-2,.cls-3,.cls-6{fill:#c33;}.cls-2,.cls-3,.cls-4{stroke:#000;}.cls-2,.cls-3,.cls-4,.cls-5,.cls-7,.cls-8{stroke-miterlimit:10;}.cls-2,.cls-5{stroke-width:2px;}.cls-2{stroke-dasharray:4;opacity:0.8;}.cls-3,.cls-4{stroke-width:0.5px;}.cls-4{fill:#849fad;}.cls-5,.cls-7{fill:none;}.cls-5{stroke:#c33;}.cls-7,.cls-8{stroke:#57575f;}.cls-8{fill:#57575f;}</style></defs><title>boids_Cohesion</title><g id="Circles" class="cls-1"><circle class="cls-2" cx="200" cy="200.5" r="132"/></g><g id="Boids"><g id="CenterBoid"><path class="cls-3" d="M199,186.61,190,213.74a1,1,0,0,0,1,1.35h18.15a1,1,0,0,0,1-1.35L201,186.61A1,1,0,0,0,199,186.61Z"/><path class="cls-4" d="M192.53,352.62,194,381.19a1,1,0,0,0,1.4.9l16.9-6.62a1,1,0,0,0,.41-1.61l-18.34-21.95A1,1,0,0,0,192.53,352.62Z"/><path class="cls-4" d="M108.44,335.62l1.44,28.57a1,1,0,0,0,1.4.9l16.9-6.62a1,1,0,0,0,.41-1.61l-18.34-21.95A1,1,0,0,0,108.44,335.62Z"/><path class="cls-4" d="M59.74,281.59l5.7,28a1,1,0,0,0,1.52.68l15.72-9.08a1,1,0,0,0,.17-1.65l-21.42-19A1,1,0,0,0,59.74,281.59Z"/><line class="cls-5" x1="189.9" y1="192.63" x2="177.79" y2="180.36"/><polygon class="cls-6" points="182.37 177.89 172.75 175.25 175.27 184.9 182.37 177.89"/><line class="cls-7" x1="189.76" y1="99.97" x2="167.08" y2="169.17"/><line class="cls-7" x1="195.92" y1="142.38" x2="167.08" y2="169.17"/><line class="cls-7" x1="239.92" y1="126.04" x2="167.29" y2="168.54"/><line class="cls-7" x1="266.25" y1="153.04" x2="167.08" y2="169.17"/><line class="cls-7" x1="167.08" y1="169.17" x2="161.58" y2="254.8"/><line class="cls-7" x1="119.92" y1="149.85" x2="167.08" y2="169.17"/><line class="cls-7" x1="134.25" y1="221.04" x2="167.06" y2="169.59"/><path class="cls-4" d="M128.64,134.06l-22.07,18.19a1,1,0,0,0,.11,1.66l15.39,9.62a1,1,0,0,0,1.54-.63l6.68-27.81A1,1,0,0,0,128.64,134.06Z"/><path class="cls-4" d="M200.71,125,183.5,147.82a1,1,0,0,0,.49,1.59l17.22,5.76a1,1,0,0,0,1.35-1V125.6A1,1,0,0,0,200.71,125Z"/><path class="cls-4" d="M141.72,204.62l-20.6,19.85a1,1,0,0,0,.24,1.65l16.09,8.4a1,1,0,0,0,1.49-.75l4.5-28.25A1,1,0,0,0,141.72,204.62Z"/><path class="cls-4" d="M274.42,137l-21.42,19a1,1,0,0,0,.17,1.65l15.72,9.08a1,1,0,0,0,1.52-.68l5.7-28A1,1,0,0,0,274.42,137Z"/><path class="cls-4" d="M243.83,108.43l-16,23.68a1,1,0,0,0,.57,1.56l17.48,4.89a1,1,0,0,0,1.3-1L245.7,109A1,1,0,0,0,243.83,108.43Z"/><path class="cls-4" d="M189.54,81.93l-10.2,26.72a1,1,0,0,0,.91,1.39l18.14.76a1,1,0,0,0,1-1.31L191.48,82A1,1,0,0,0,189.54,81.93Z"/><path class="cls-4" d="M166.38,237.41l-17.22,22.84a1,1,0,0,0,.49,1.59l17.22,5.76a1,1,0,0,0,1.35-1V238A1,1,0,0,0,166.38,237.41Z"/><circle class="cls-8" cx="167.13" cy="169.48" r="3.4"/></g></g></svg>