<svg xmlns="http://www.w3.org/2000/svg" viewBox="0 0 400 401"><defs><style>.cls-1{opacity:0.33;}.cls-2,.cls-6,.cls-7{fill:#c33;}.cls-2,.cls-3,.cls-7{stroke:#000;}.cls-2,.cls-3,.cls-4,.cls-5,.cls-7{stroke-miterlimit:10;}.cls-2,.cls-5{stroke-width:2px;}.cls-2{stroke-dasharray:4;opacity:0.8;}.cls-3{fill:#849fad;}.cls-3,.cls-7{stroke-width:0.5px;}.cls-4,.cls-5{fill:none;}.cls-4{stroke:#57575f;}.cls-5{stroke:#c33;}</style></defs><title>boids_Separation</title><g id="Circles" class="cls-1"><circle class="cls-2" cx="200" cy="200.5" r="132"/></g><g id="Boids"><g id="CenterBoid"><path class="cls-3" d="M297.61,317.85v28.6a1,1,0,0,0,1.35,1l17.22-5.76a1,1,0,0,0,.49-1.59l-17.22-22.84A1,1,0,0,0,297.61,317.85Z"/><path class="cls-3" d="M70.31,54.84,48.23,73a1,1,0,0,0,.11,1.66l15.39,9.62a1,1,0,0,0,1.54-.63L72,55.87A1,1,0,0,0,70.31,54.84Z"/><path class="cls-3" d="M58.77,259,47,285.08a1,1,0,0,0,.83,1.44l18.06,1.86a1,1,0,0,0,1.1-1.24L60.7,259.22A1,1,0,0,0,58.77,259Z"/><path class="cls-3" d="M329.46,67.35l-6.68,27.81a1,1,0,0,0,1.09,1.26L342,94.84a1,1,0,0,0,.85-1.43L331.4,67.18A1,1,0,0,0,329.46,67.35Z"/><line class="cls-4" x1="270.25" y1="251.58" x2="200" y2="200.5"/><line class="cls-5" x1="208.25" y1="196.13" x2="232.7" y2="163.45"/><polygon class="cls-6" points="235.82 167.61 237 157.71 227.83 161.63 235.82 167.61"/><line class="cls-4" x1="200" y1="200.5" x2="170.72" y2="114.91"/><line class="cls-4" x1="200" y1="200.5" x2="132.25" y2="140.91"/><line class="cls-4" x1="200" y1="200.5" x2="163.49" y2="200.74"/><line class="cls-4" x1="200" y1="200.5" x2="160.15" y2="269.5"/><path class="cls-3" d="M257.39,230.87l-1.86,28.54a1,1,0,0,0,1.28,1.06l17.55-4.63a1,1,0,0,0,.6-1.55l-15.69-23.91A1,1,0,0,0,257.39,230.87Z"/><path class="cls-3" d="M134.89,127.2,120.59,152a1,1,0,0,0,.68,1.52l17.79,3.62a1,1,0,0,0,1.22-1.13l-3.48-28.39A1,1,0,0,0,134.89,127.2Z"/><path class="cls-3" d="M166.56,101.38l-4.86,28.19a1,1,0,0,0,1.16,1.19L180.81,128a1,1,0,0,0,.76-1.48l-13.08-25.43A1,1,0,0,0,166.56,101.38Z"/><path class="cls-3" d="M169.95,185.64l-16,23.68a1,1,0,0,0,.57,1.56L172,215.77a1,1,0,0,0,1.3-1l-1.44-28.57A1,1,0,0,0,169.95,185.64Z"/><path class="cls-3" d="M159.8,245.14l-4.86,28.19a1,1,0,0,0,1.16,1.19L174,271.76a1,1,0,0,0,.76-1.48l-13.08-25.43A1,1,0,0,0,159.8,245.14Z"/><path class="cls-3" d="M118.79,239.93l-16,23.68a1,1,0,0,0,.57,1.56l17.48,4.89a1,1,0,0,0,1.3-1l-1.44-28.57A1,1,0,0,0,118.79,239.93Z"/><path class="cls-7" d="M199,186.61,190,213.74a1,1,0,0,0,1,1.35h18.15a1,1,0,0,0,1-1.35L201,186.61A1,1,0,0,0,199,186.61Z"/></g></g></svg>