<svg xmlns="http://www.w3.org/2000/svg" viewBox="0 0 400 401"><defs><style>.cls-1{opacity:0.33;}.cls-2,.cls-6,.cls-7,.cls-9{fill:#c33;}.cls-2,.cls-4,.cls-7,.cls-9{stroke:#000;}.cls-2,.cls-3,.cls-4,.cls-5,.cls-7,.cls-9{stroke-miterlimit:10;}.cls-2,.cls-3{stroke-width:2px;}.cls-2{stroke-dasharray:4;opacity:0.8;}.cls-3,.cls-5{fill:none;}.cls-3{stroke:#57575f;}.cls-4{fill:#849fad;}.cls-4,.cls-7,.cls-9{stroke-width:0.5px;}.cls-5{stroke:#c33;stroke-width:1.37px;}.cls-8{opacity:0.63;}.cls-9{stroke-dasharray:1;}</style></defs><title>boids_Alignment</title><g id="Circles" class="cls-1"><circle class="cls-2" cx="200" cy="200.5" r="132"/></g><g id="Boids"><g id="CenterBoid"><line class="cls-3" x1="213.12" y1="279.5" x2="218.52" y2="239.86"/><path class="cls-4" d="M214.76,260.24l-12.66,25.65a1,1,0,0,0,.78,1.47l18,2.45A1,1,0,0,0,222,288.6l-5.33-28.1A1,1,0,0,0,214.76,260.24Z"/><line class="cls-3" x1="208.53" y1="121.88" x2="233.43" y2="90.57"/><path class="cls-4" d="M219.78,106.17l-24,15.58a1,1,0,0,0-.08,1.66l14.21,11.3a1,1,0,0,0,1.6-.45l9.78-26.88A1,1,0,0,0,219.78,106.17Z"/><line class="cls-3" x1="246.53" y1="157.59" x2="258.79" y2="119.52"/><path class="cls-4" d="M251.52,138.92l-16.95,23a1,1,0,0,0,.51,1.58l17.28,5.56a1,1,0,0,0,1.34-1l-.33-28.6A1,1,0,0,0,251.52,138.92Z"/><line class="cls-3" x1="286.34" y1="190" x2="286.14" y2="150"/><path class="cls-4" d="M285.27,170.7l-8.94,27.17a1,1,0,0,0,1,1.34l18.15-.09a1,1,0,0,0,1-1.35l-9.21-27.08A1,1,0,0,0,285.27,170.7Z"/><line class="cls-3" x1="275.97" y1="260.21" x2="285.56" y2="221.38"/><path class="cls-4" d="M279.66,241.24,264.34,265.4a1,1,0,0,0,.62,1.54l17.62,4.35a1,1,0,0,0,1.27-1.08l-2.31-28.51A1,1,0,0,0,279.66,241.24Z"/><line class="cls-3" x1="303.07" y1="356.81" x2="294.02" y2="317.85"/><path class="cls-4" d="M297.76,338.23l-2.71,28.47a1,1,0,0,0,1.25,1.09L314,363.69a1,1,0,0,0,.64-1.53l-15-24.37A1,1,0,0,0,297.76,338.23Z"/><line class="cls-3" x1="330.67" y1="95.21" x2="321.62" y2="56.25"/><path class="cls-4" d="M325.36,76.63l-2.71,28.47a1,1,0,0,0,1.25,1.09l17.68-4.11a1,1,0,0,0,.64-1.53l-15-24.37A1,1,0,0,0,325.36,76.63Z"/><path class="cls-5" d="M219.62,156.49a17.59,17.59,0,0,0-21.07-2"/><polygon class="cls-6" points="221.46 153.59 222.74 160.28 216.31 158.05 221.46 153.59"/></g><g id="Others"><line class="cls-3" x1="200" y1="204.37" x2="200" y2="164.37"/><path class="cls-7" d="M199,186.61,190,213.74a1,1,0,0,0,1,1.35h18.15a1,1,0,0,0,1-1.35L201,186.61A1,1,0,0,0,199,186.61Z"/><g class="cls-8"><line class="cls-3" x1="200.96" y1="205.71" x2="217.75" y2="169.4"/><path class="cls-9" d="M207.53,189.18,187.9,210a1,1,0,0,0,.32,1.63l16.48,7.62a1,1,0,0,0,1.45-.82L209.29,190A1,1,0,0,0,207.53,189.18Z"/></g></g></g></svg>